# xmcd CD database file
#
# Track frame offsets:
#	150
#	58477
#	99837
#	168470
#
# Disc length: 2756 seconds
#
# Revision: 0
# Processed by: cddbd v1.5.2PL0 Copyright (c) Steve Scherf et al.
# Submitted via: CDex 1.70beta2
#
DISCID=2f0ac204
DTITLE=Charles Mingus - Charles Mingus Presents Charles Mingus
DYEAR=1960
DGENRE=Jazz
TTITLE0=Folk Forms, No. 1
TTITLE1=Original Faubus Fables  
TTITLE2=What Love?
TTITLE3=All the Things You Could Be by Now if Sigmund Freud's Wife Was ...
EXTD=YEAR: 1960
EXTT0=
EXTT1=
EXTT2=
EXTT3=
PLAYORDER=
